<svg xmlns="http://www.w3.org/2000/svg" viewBox="0 0 100 100">
  <circle cx="50" cy="50" r="50" fill="#f7951e"/>
  <g fill="#161616" transform="translate(15 15) scale(0.7)"><circle cx="50" cy="50" r="17"/><path d="M 68.76 46.97 Q 94.00 50.00 68.76 53.03 Z"/><path d="M 67.76 56.76 Q 88.11 72.00 64.73 62.00 Z"/><path d="M 62.00 64.73 Q 72.00 88.11 56.76 67.76 Z"/><path d="M 53.03 68.76 Q 50.00 94.00 46.97 68.76 Z"/><path d="M 43.24 67.76 Q 28.00 88.11 38.00 64.73 Z"/><path d="M 35.27 62.00 Q 11.89 72.00 32.24 56.76 Z"/><path d="M 31.24 53.03 Q 6.00 50.00 31.24 46.97 Z"/><path d="M 32.24 43.24 Q 11.89 28.00 35.27 38.00 Z"/><path d="M 38.00 35.27 Q 28.00 11.89 43.24 32.24 Z"/><path d="M 46.97 31.24 Q 50.00 6.00 53.03 31.24 Z"/><path d="M 56.76 32.24 Q 72.00 11.89 62.00 35.27 Z"/><path d="M 64.73 38.00 Q 88.11 28.00 67.76 43.24 Z"/></g>
</svg>
